<svg width="36" height="45" viewBox="0 0 36 45" fill="none" xmlns="http://www.w3.org/2000/svg">
<g clip-path="url(#clip0)">
<path d="M12.3971 0H10.3311V2.01668H12.3971V0Z" fill="black"/>
<path d="M14.464 0H12.3979V2.01668H14.464V0Z" fill="black"/>
<path d="M10.3307 2.01666H8.26465V4.03335H10.3307V2.01666Z" fill="black"/>
<path d="M16.53 2.01666H14.4639V4.03335H16.53V2.01666Z" fill="black"/>
<path d="M10.3307 4.03336H8.26465V6.05004H10.3307V4.03336Z" fill="black"/>
<path d="M16.53 4.03336H14.4639V6.05004H16.53V4.03336Z" fill="black"/>
<path d="M10.3307 6.05072H8.26465V8.0674H10.3307V6.05072Z" fill="black"/>
<path d="M16.53 6.05072H14.4639V8.0674H16.53V6.05072Z" fill="black"/>
<path d="M10.3307 8.06671H8.26465V10.0834H10.3307V8.06671Z" fill="black"/>
<path d="M16.53 8.06671H14.4639V10.0834H16.53V8.06671Z" fill="black"/>
<path d="M10.3307 10.0841H8.26465V12.1008H10.3307V10.0841Z" fill="black"/>
<path d="M16.53 10.0841H14.4639V12.1008H16.53V10.0841Z" fill="black"/>
<path d="M18.5959 10.0841H16.5298V12.1008H18.5959V10.0841Z" fill="black"/>
<path d="M20.6618 10.0841H18.5957V12.1008H20.6618V10.0841Z" fill="black"/>
<path d="M10.3307 12.1008H8.26465V14.1175H10.3307V12.1008Z" fill="black"/>
<path d="M16.53 12.1008H14.4639V14.1175H16.53V12.1008Z" fill="black"/>
<path d="M22.7287 12.1008H20.6626V14.1175H22.7287V12.1008Z" fill="black"/>
<path d="M24.7931 12.1008H22.7271V14.1175H24.7931V12.1008Z" fill="black"/>
<path d="M26.8605 12.1008H24.7944V14.1175H26.8605V12.1008Z" fill="black"/>
<path d="M10.3307 14.1175H8.26465V16.1341H10.3307V14.1175Z" fill="black"/>
<path d="M16.53 14.1175H14.4639V16.1341H16.53V14.1175Z" fill="black"/>
<path d="M22.7287 14.1175H20.6626V16.1341H22.7287V14.1175Z" fill="black"/>
<path d="M28.9264 14.1175H26.8604V16.1341H28.9264V14.1175Z" fill="black"/>
<path d="M30.9924 14.1175H28.9263V16.1341H30.9924V14.1175Z" fill="black"/>
<path d="M10.3307 16.1342H8.26465V18.1509H10.3307V16.1342Z" fill="black"/>
<path d="M16.53 16.1342H14.4639V18.1509H16.53V16.1342Z" fill="black"/>
<path d="M22.7287 16.1342H20.6626V18.1509H22.7287V16.1342Z" fill="black"/>
<path d="M28.9264 16.1342H26.8604V18.1509H28.9264V16.1342Z" fill="black"/>
<path d="M33.0583 16.1342H30.9922V18.1509H33.0583V16.1342Z" fill="black"/>
<path d="M2.06658 18.1509H0.000488281V20.1676H2.06658V18.1509Z" fill="black"/>
<path d="M4.13201 18.1509H2.06592V20.1676H4.13201V18.1509Z" fill="black"/>
<path d="M6.19891 18.1509H4.13281V20.1676H6.19891V18.1509Z" fill="black"/>
<path d="M10.3307 18.1509H8.26465V20.1676H10.3307V18.1509Z" fill="black"/>
<path d="M16.53 18.1509H14.4639V20.1676H16.53V18.1509Z" fill="black"/>
<path d="M22.7287 18.1509H20.6626V20.1676H22.7287V18.1509Z" fill="black"/>
<path d="M28.9264 18.1509H26.8604V20.1676H28.9264V18.1509Z" fill="black"/>
<path d="M35.1252 18.1509H33.0591V20.1676H35.1252V18.1509Z" fill="black"/>
<path d="M2.06609 20.1675H0V22.1842H2.06609V20.1675Z" fill="black"/>
<path d="M8.26482 20.1675H6.19873V22.1842H8.26482V20.1675Z" fill="black"/>
<path d="M10.3307 20.1675H8.26465V22.1842H10.3307V20.1675Z" fill="black"/>
<path d="M28.9264 20.1675H26.8604V22.1842H28.9264V20.1675Z" fill="black"/>
<path d="M35.1252 20.1675H33.0591V22.1842H35.1252V20.1675Z" fill="black"/>
<path d="M2.06609 22.1842H0V24.2016H2.06609V22.1842Z" fill="black"/>
<path d="M10.3307 22.1842H8.26465V24.2016H10.3307V22.1842Z" fill="black"/>
<path d="M35.1252 22.1842H33.0591V24.2016H35.1252V22.1842Z" fill="black"/>
<path d="M4.13201 24.2016H2.06592V26.2183H4.13201V24.2016Z" fill="black"/>
<path d="M35.1252 24.2016H33.0591V26.2183H35.1252V24.2016Z" fill="black"/>
<path d="M6.19891 26.2175H4.13281V28.2342H6.19891V26.2175Z" fill="black"/>
<path d="M35.1252 26.2175H33.0591V28.2342H35.1252V26.2175Z" fill="black"/>
<path d="M6.19891 28.235H4.13281V30.2516H6.19891V28.235Z" fill="black"/>
<path d="M35.1252 28.235H33.0591V30.2516H35.1252V28.235Z" fill="black"/>
<path d="M8.26482 30.2516H6.19873V32.2683H8.26482V30.2516Z" fill="black"/>
<path d="M35.1252 30.2516H33.0591V32.2683H35.1252V30.2516Z" fill="black"/>
<path d="M8.26482 32.2683H6.19873V34.285H8.26482V32.2683Z" fill="black"/>
<path d="M33.0583 32.2683H30.9922V34.285H33.0583V32.2683Z" fill="black"/>
<path d="M10.3307 34.285H8.26465V36.3017H10.3307V34.285Z" fill="black"/>
<path d="M33.0583 34.285H30.9922V36.3017H33.0583V34.285Z" fill="black"/>
<path d="M10.3307 36.3017H8.26465V38.3184H10.3307V36.3017Z" fill="black"/>
<path d="M33.0583 36.3017H30.9922V38.3184H33.0583V36.3017Z" fill="black"/>
<path d="M12.3971 38.3191H10.3311V40.3358H12.3971V38.3191Z" fill="black"/>
<path d="M30.9924 38.3191H28.9263V40.3358H30.9924V38.3191Z" fill="black"/>
<path d="M12.3971 40.335H10.3311V42.3517H12.3971V40.335Z" fill="black"/>
<path d="M30.9924 40.335H28.9263V42.3517H30.9924V40.335Z" fill="black"/>
<path d="M12.3971 42.3517H10.3311V44.3684H12.3971V42.3517Z" fill="black"/>
<path d="M14.464 42.3525H12.3979V44.3692H14.464V42.3525Z" fill="black"/>
<path d="M16.53 42.3525H14.4639V44.3692H16.53V42.3525Z" fill="black"/>
<path d="M18.5959 42.3525H16.5298V44.3692H18.5959V42.3525Z" fill="black"/>
<path d="M20.6618 42.3525H18.5957V44.3692H20.6618V42.3525Z" fill="black"/>
<path d="M22.7287 42.3525H20.6626V44.3692H22.7287V42.3525Z" fill="black"/>
<path d="M24.7931 42.3525H22.7271V44.3692H24.7931V42.3525Z" fill="black"/>
<path d="M26.8605 42.3525H24.7944V44.3692H26.8605V42.3525Z" fill="black"/>
<path d="M33.0587 18.1508V32.2683H30.9926V38.3191H28.9266V42.3524H12.3971V38.3191H10.331V34.285H8.2642V30.2509H6.19882V26.2176H4.13201V24.2016H2.06592V20.1675H6.19882V22.1842H8.2642V24.2016H10.331V2.01666H14.4632V20.1675H16.5293V12.1008H20.6622V20.1675H22.7276V14.1175H26.8598V22.1842H28.9266V16.1341H30.9926V18.1508H33.0587Z" fill="white"/>
<path d="M28.9264 42.3525H26.8604V44.3692H28.9264V42.3525Z" fill="black"/>
<path d="M30.9924 42.3517H28.9263V44.3684H30.9924V42.3517Z" fill="black"/>
</g>
<defs>
<clipPath id="clip0">
<rect width="35.125" height="44.3684" fill="white"/>
</clipPath>
</defs>
</svg>
