<svg width="67" height="13" viewBox="0 0 67 13" fill="none" xmlns="http://www.w3.org/2000/svg">
<path d="M5.244 3.304C4.44 3.304 3.708 4.252 3.372 4.84H3.336V3.508L2.976 3.232L0.276 4.336L0.42 4.684C1.152 4.384 1.176 4.6 1.176 5.512V8.584C1.176 9.412 1.02 9.652 0.3 9.652V10H4.776V9.604C3.6 9.604 3.336 9.34 3.336 8.392V5.872C3.444 5.296 3.756 4.84 4.056 4.84C4.2 4.84 4.284 4.888 4.512 5.14C4.752 5.392 4.884 5.512 5.196 5.512C5.724 5.512 6.084 4.984 6.084 4.276C6.084 3.652 5.808 3.304 5.244 3.304ZM11.3229 10.204L13.9749 9.304L13.8549 8.944C13.0869 9.208 13.0389 8.98 13.0389 8.068V3.568L12.8229 3.364L9.95494 4.228L10.0509 4.564C10.8189 4.336 10.8909 4.528 10.8909 5.368V8.044C10.5549 8.56 10.2309 8.944 9.83494 8.944C9.45094 8.944 9.29494 8.68 9.29494 8.032V3.568L9.06694 3.364L6.21094 4.228L6.30694 4.564C7.07494 4.336 7.14694 4.528 7.14694 5.368V8.224C7.14694 9.496 7.86694 10.192 8.79094 10.192C9.88294 10.192 10.3749 9.472 10.8549 8.716H10.8909V9.88L11.3229 10.204ZM14.7053 9.316C15.6893 10 16.8773 10.18 17.7053 10.18C19.8293 10.18 20.9213 8.8 20.9213 6.4C20.9213 4.336 20.1293 3.304 18.9653 3.304C18.0173 3.304 17.4173 3.832 16.9253 4.552H16.8773V0.279999L16.6253 0.0519993L13.8413 1.54L14.0093 1.84C14.7173 1.468 14.7053 1.66 14.7053 2.5V9.316ZM16.8773 5.332C17.0813 4.96 17.3813 4.6 17.7893 4.6C18.2933 4.6 18.6053 5.116 18.6053 6.724C18.6053 8.584 18.3053 9.412 17.6693 9.412C17.3333 9.412 17.0693 9.184 16.8773 8.836V5.332ZM22.1839 12.832C23.4799 12.76 24.0679 11.86 24.6439 10.12L26.3719 4.888C26.6359 4.096 26.9239 3.892 27.4039 3.892V3.544H25.2559V3.892C25.9639 3.892 25.9399 4.096 25.6879 4.9L24.8959 7.42H24.8119L24.0799 4.912C23.8399 4.108 23.8399 3.892 24.5839 3.892V3.544H20.7439V3.892C21.2359 3.892 21.5359 4.096 21.7999 4.888L23.2759 9.208C23.5399 10 23.7319 10.66 23.7319 10.888C23.6839 11.248 23.5519 11.452 23.3359 11.452C23.1439 11.452 23.0119 11.392 22.8079 11.164C22.6159 10.96 22.3879 10.732 21.9799 10.732C21.4519 10.732 21.0079 11.068 21.0079 11.74C21.0079 12.4 21.5239 12.832 22.1839 12.832ZM28.5209 2.116C28.9889 2.116 29.0969 1.84 29.2649 1.84C29.3729 1.84 29.4449 1.936 29.4449 2.128C29.4449 2.608 28.8929 3.16 27.9569 3.316V3.724C29.3849 3.4 30.0809 2.548 30.0809 1.528C30.0809 0.663999 29.5169 0.0759997 28.8089 0.0759997C28.0169 0.0759997 27.6209 0.592 27.6209 1.168C27.6209 1.66 27.9329 2.116 28.5209 2.116ZM32.8778 10.192C34.0538 10.192 35.1098 9.58 35.1098 8.164C35.1098 7.072 34.4858 6.544 33.3818 5.788C32.4458 5.14 32.2058 4.972 32.2058 4.564C32.2058 4.24 32.4218 3.988 32.8298 3.988C33.6217 3.988 34.2938 4.732 34.5218 5.644H34.8578L34.7498 3.388H34.4138L34.2938 3.676C34.2218 3.832 34.1018 3.868 33.9338 3.748C33.6698 3.544 33.2258 3.304 32.6258 3.304C31.4738 3.304 30.4897 4.024 30.4897 5.308C30.4897 6.076 30.8738 6.64 32.0138 7.408C33.1658 8.188 33.3698 8.356 33.3698 8.764C33.3698 9.244 33.1058 9.496 32.6258 9.496C31.6658 9.496 30.9458 8.572 30.7418 7.3H30.3938L30.5138 10.048H30.8498L30.9698 9.796C31.0418 9.64 31.1498 9.616 31.3058 9.724C31.6058 9.928 32.0978 10.192 32.8778 10.192ZM40.7293 10.192C41.9053 10.192 42.9613 9.58 42.9613 8.164C42.9613 7.072 42.3373 6.544 41.2333 5.788C40.2973 5.14 40.0573 4.972 40.0573 4.564C40.0573 4.24 40.2733 3.988 40.6813 3.988C41.4733 3.988 42.1453 4.732 42.3733 5.644H42.7093L42.6013 3.388H42.2653L42.1453 3.676C42.0733 3.832 41.9533 3.868 41.7853 3.748C41.5213 3.544 41.0773 3.304 40.4773 3.304C39.3253 3.304 38.3413 4.024 38.3413 5.308C38.3413 6.076 38.7253 6.64 39.8653 7.408C41.0173 8.188 41.2213 8.356 41.2213 8.764C41.2213 9.244 40.9573 9.496 40.4773 9.496C39.5173 9.496 38.7973 8.572 38.5933 7.3H38.2453L38.3653 10.048H38.7013L38.8213 9.796C38.8933 9.64 39.0013 9.616 39.1573 9.724C39.4573 9.928 39.9493 10.192 40.7293 10.192ZM47.4796 7.048C47.4796 8.32 47.2636 8.98 46.7956 8.98C46.4116 8.98 46.2076 8.512 46.2076 7.636V4.216H47.5636V3.544H46.1596V1.684H45.4636C45.1876 2.98 44.1916 3.52 43.2796 3.58V4.216H44.0596V7.732C44.0596 9.568 44.7436 10.192 45.9076 10.192C47.3836 10.192 47.9356 9.172 47.9356 7.048H47.4796ZM53.1706 10.204L55.8226 9.304L55.7026 8.944C54.9346 9.208 54.8866 8.98 54.8866 8.068V3.568L54.6706 3.364L51.8026 4.228L51.8986 4.564C52.6666 4.336 52.7386 4.528 52.7386 5.368V8.044C52.4026 8.56 52.0786 8.944 51.6826 8.944C51.2986 8.944 51.1426 8.68 51.1426 8.032V3.568L50.9146 3.364L48.0586 4.228L48.1546 4.564C48.9226 4.336 48.9946 4.528 48.9946 5.368V8.224C48.9946 9.496 49.7146 10.192 50.6386 10.192C51.7306 10.192 52.2226 9.472 52.7026 8.716H52.7386V9.88L53.1706 10.204ZM64.3124 0.0519993C63.5084 0.0519993 62.3684 0.304 61.6724 1.168C61.3724 0.688 60.6884 0.4 59.6684 0.4C58.4444 0.4 56.9684 0.952 56.9684 3.256V3.592L56.1884 3.628V4.216H56.9684V8.584C56.9684 9.412 56.7884 9.652 55.9964 9.652V10H64.4684V9.652C63.4244 9.652 63.1844 9.412 63.1844 8.584V4.216H64.6244V3.544H63.1844V2.668C63.1844 1.324 63.3404 0.868 63.6764 0.868C63.9044 0.868 63.9284 1.072 64.2284 1.528C64.4564 1.9 64.6604 2.08 65.0444 2.08C65.6804 2.08 66.0044 1.624 66.0044 1.168C66.0044 0.603999 65.4524 0.0519993 64.3124 0.0519993ZM59.6084 1.072C59.9564 1.072 60.0164 1.432 60.1484 1.816C60.2924 2.272 60.4484 2.548 60.9524 2.548H61.0844C61.0484 2.74 61.0364 2.944 61.0364 3.16V3.544H59.1164V2.62C59.1164 1.552 59.2124 1.072 59.6084 1.072ZM61.0364 8.584C61.0364 9.4 60.8684 9.64 60.0884 9.652C59.2964 9.64 59.1164 9.4 59.1164 8.584V4.216H61.0364V8.584Z" fill="black"/>
</svg>
